<svg width="400" height="400" viewBox="0 0 400 400" fill="none" xmlns="http://www.w3.org/2000/svg">
  <!-- Background -->
  <rect width="400" height="400" fill="#f8f9fa"/>
  
  <!-- Border -->
  <rect x="1" y="1" width="398" height="398" fill="none" stroke="#e9ecef" stroke-width="2"/>
  
  <!-- Hoodie icon -->
  <g transform="translate(140, 110)">
    <!-- Hoodie body -->
    <path d="M25 25 L25 15 C25 12 27 10 30 10 L90 10 C93 10 95 12 95 15 L95 25 L110 20 C112 19 114 21 114 23 L114 45 C114 47 112 49 110 48 L95 43 L95 140 C95 142 93 144 90 144 L30 144 C27 144 25 142 25 140 L25 43 L10 48 C8 49 6 47 6 45 L6 23 C6 21 8 19 10 20 L25 25 Z" 
          fill="#fce4ec" 
          stroke="#ad1457" 
          stroke-width="2"/>
    
    <!-- Hood -->
    <path d="M35 10 C35 8 37 6 40 6 L80 6 C83 6 85 8 85 10 L85 5 C85 2 82 0 80 0 L40 0 C37 0 35 2 35 5 L35 10 Z" 
          fill="#f8bbd9" 
          stroke="#ad1457" 
          stroke-width="1.5"/>
    
    <!-- Kangaroo pocket -->
    <rect x="40" y="60" width="40" height="25" rx="3" 
          fill="none" 
          stroke="#ad1457" 
          stroke-width="1.5"/>
  </g>
  
  <!-- Product text -->
  <text x="200" y="280" text-anchor="middle" fill="#ad1457" font-family="system-ui, -apple-system, sans-serif" font-size="18" font-weight="600">
    Designer Hoodie
  </text>
  
  <!-- Price text -->
  <text x="200" y="300" text-anchor="middle" fill="#6c757d" font-family="system-ui, -apple-system, sans-serif" font-size="14">
    CHF 39.90
  </text>
  
  <!-- Placeholder note -->
  <text x="200" y="330" text-anchor="middle" fill="#adb5bd" font-family="system-ui, -apple-system, sans-serif" font-size="11">
    Replace with actual product image
  </text>
</svg>