<svg width="400" height="400" viewBox="0 0 400 400" fill="none" xmlns="http://www.w3.org/2000/svg">
  <!-- Background -->
  <rect width="400" height="400" fill="#f8f9fa"/>
  
  <!-- Border -->
  <rect x="1" y="1" width="398" height="398" fill="none" stroke="#e9ecef" stroke-width="2"/>
  
  <!-- Shopping bag icon -->
  <g transform="translate(160, 140)">
    <path d="M20 6H76C78.2091 6 80 7.79086 80 10V74C80 76.2091 78.2091 78 76 78H20C17.7909 78 16 76.2091 16 74V10C16 7.79086 17.7909 6 20 6Z" stroke="#6c757d" stroke-width="2" fill="none"/>
    <path d="M32 26V18C32 12.4772 36.4772 8 42 8H54C59.5228 8 64 12.4772 64 18V26" stroke="#6c757d" stroke-width="2" fill="none"/>
  </g>
  
  <!-- Product text -->
  <text x="200" y="260" text-anchor="middle" fill="#6c757d" font-family="system-ui, -apple-system, sans-serif" font-size="16" font-weight="500">
    Product Image
  </text>
  
  <!-- Placeholder text -->
  <text x="200" y="280" text-anchor="middle" fill="#adb5bd" font-family="system-ui, -apple-system, sans-serif" font-size="12">
    400 × 400 px
  </text>
</svg>