<svg width="400" height="400" viewBox="0 0 400 400" fill="none" xmlns="http://www.w3.org/2000/svg">
  <!-- Background -->
  <rect width="400" height="400" fill="#f8f9fa"/>
  
  <!-- Border -->
  <rect x="1" y="1" width="398" height="398" fill="none" stroke="#e9ecef" stroke-width="2"/>
  
  <!-- T-Shirt icon -->
  <g transform="translate(150, 120)">
    <!-- T-Shirt shape -->
    <path d="M30 20 L30 10 C30 8 32 6 34 6 L66 6 C68 6 70 8 70 10 L70 20 L85 15 C87 14 89 16 89 18 L89 35 C89 37 87 39 85 38 L70 33 L70 130 C70 132 68 134 66 134 L34 134 C32 134 30 132 30 130 L30 33 L15 38 C13 39 11 37 11 35 L11 18 C11 16 13 14 15 15 L30 20 Z" 
          fill="#e3f2fd" 
          stroke="#1976d2" 
          stroke-width="2"/>
  </g>
  
  <!-- Product text -->
  <text x="200" y="280" text-anchor="middle" fill="#1976d2" font-family="system-ui, -apple-system, sans-serif" font-size="18" font-weight="600">
    Premium T-Shirt
  </text>
  
  <!-- Price text -->
  <text x="200" y="300" text-anchor="middle" fill="#6c757d" font-family="system-ui, -apple-system, sans-serif" font-size="14">
    CHF 24.90
  </text>
  
  <!-- Placeholder note -->
  <text x="200" y="330" text-anchor="middle" fill="#adb5bd" font-family="system-ui, -apple-system, sans-serif" font-size="11">
    Replace with actual product image
  </text>
</svg>